<svg width="0" height="0" class="hidden">
    <symbol fill="none" xmlns="http://www.w3.org/2000/svg" viewBox="0 0 24 24" id="arrows">
    <path d="M20 17H4M4 17L8 13M4 17L8 21" stroke="#85AA9F" stroke-width="1.5" stroke-linecap="round" stroke-linejoin="round"></path>
    <path d="M4 7H20M20 7L16 3M20 7L16 11" stroke="#85AA9F" stroke-width="1.5" stroke-linecap="round" stroke-linejoin="round"></path>
  </symbol>
  <symbol fill="none" xmlns="http://www.w3.org/2000/svg" viewBox="0 0 20 20" id="eye-off">
    <g clip-path="url(#clip0_72_19357)">
      <path d="M14.95 14.95C13.5255 16.0358 11.791 16.6374 10 16.6667C4.16671 16.6667 0.833374 10 0.833374 10C1.86995 8.06825 3.30765 6.38051 5.05004 5.05M8.25004 3.53333C8.82365 3.39907 9.41093 3.33195 10 3.33333C15.8334 3.33333 19.1667 10 19.1667 10C18.6609 10.9463 18.0576 11.8373 17.3667 12.6583M11.7667 11.7667C11.5378 12.0123 11.2618 12.2093 10.9552 12.3459C10.6485 12.4826 10.3175 12.556 9.98178 12.562C9.64611 12.5679 9.31268 12.5061 9.00138 12.3804C8.69009 12.2547 8.40731 12.0675 8.16991 11.8301C7.93252 11.5927 7.74537 11.31 7.61963 10.9987C7.4939 10.6874 7.43215 10.3539 7.43807 10.0183C7.44399 9.68258 7.51747 9.35154 7.65411 9.04487C7.79075 8.73821 7.98775 8.46221 8.23338 8.23333" stroke="#121417" stroke-width="2" stroke-linecap="round" stroke-linejoin="round"></path>
      <path d="M0.833374 0.833313L19.1667 19.1666" stroke="#121417" stroke-width="2" stroke-linecap="round" stroke-linejoin="round"></path>
    </g>
    <defs>
      <clipPath id="clip0_72_19357">
        <rect width="20" height="20" fill="white"></rect>
      </clipPath>
    </defs>
  </symbol>
  <symbol fill="none" xmlns="http://www.w3.org/2000/svg" viewBox="0 0 20 20" id="eye-on">
    <g clip-path="url(#clip0_72_19363)">
      <path d="M0.833374 9.99998C0.833374 9.99998 4.16671 3.33331 10 3.33331C15.8334 3.33331 19.1667 9.99998 19.1667 9.99998C19.1667 9.99998 15.8334 16.6666 10 16.6666C4.16671 16.6666 0.833374 9.99998 0.833374 9.99998Z" stroke="#121417" stroke-width="2" stroke-linecap="round" stroke-linejoin="round"></path>
      <path d="M10 12.5C11.3807 12.5 12.5 11.3807 12.5 10C12.5 8.61929 11.3807 7.5 10 7.5C8.61929 7.5 7.5 8.61929 7.5 10C7.5 11.3807 8.61929 12.5 10 12.5Z" stroke="#121417" stroke-width="2" stroke-linecap="round" stroke-linejoin="round"></path>
    </g>
    <defs>
      <clipPath id="clip0_72_19363">
        <rect width="20" height="20" fill="white"></rect>
      </clipPath>
    </defs>
  </symbol>
  <symbol fill="none" xmlns="http://www.w3.org/2000/svg" viewBox="0 0 24 24" id="gridicons_user">
    <path d="M12 4C13.0609 4 14.0783 4.42143 14.8284 5.17157C15.5786 5.92172 16 6.93914 16 8C16 9.06087 15.5786 10.0783 14.8284 10.8284C14.0783 11.5786 13.0609 12 12 12C10.9391 12 9.92172 11.5786 9.17158 10.8284C8.42143 10.0783 8 9.06087 8 8C8 6.93914 8.42143 5.92172 9.17158 5.17157C9.92172 4.42143 10.9391 4 12 4ZM12 20C12 20 20 20 20 18C20 15.6 16.1 13 12 13C7.9 13 4 15.6 4 18C4 20 12 20 12 20Z" fill="#FCFCFC" fill-opacity="0.7"></path>
  </symbol>
  <symbol fill="none" xmlns="http://www.w3.org/2000/svg" viewBox="0 0 40 40" id="logo">
    <circle cx="20" cy="20" r="20" fill="#85AA9F"></circle>
    <path fill-rule="evenodd" clip-rule="evenodd" d="M20.4431 19C26.3871 14.517 26.6495 11.8 20.4431 7C14.1184 11.9024 14.9336 14.501 20.4431 19ZM19 20.5569C14.517 14.613 11.8 14.3505 7 20.5569C11.9024 26.8816 14.501 26.0664 19 20.5569ZM34 20.5569C29.517 14.613 26.8 14.3505 22 20.5569C26.9024 26.8816 29.501 26.0664 34 20.5569ZM20.4431 34C26.3871 29.517 26.6495 26.8 20.4431 22C14.1184 26.9024 14.9336 29.501 20.4431 34Z" fill="#FCFCFC"></path>
  </symbol>
  <symbol fill="none" xmlns="http://www.w3.org/2000/svg" viewBox="0 0 20 20" id="pensil-grey">
    <path d="M2.39662 15.0964C2.43491 14.7518 2.45405 14.5795 2.50618 14.4185C2.55243 14.2756 2.61778 14.1396 2.70045 14.0142C2.79363 13.8729 2.91621 13.7504 3.16136 13.5052L14.1666 2.49999C15.0871 1.57951 16.5795 1.57951 17.4999 2.49999C18.4204 3.42046 18.4204 4.91285 17.4999 5.83332L6.49469 16.8386C6.24954 17.0837 6.12696 17.2063 5.98566 17.2995C5.86029 17.3821 5.72433 17.4475 5.58146 17.4937C5.42042 17.5459 5.24813 17.565 4.90356 17.6033L2.08325 17.9167L2.39662 15.0964Z" stroke="#121417" stroke-opacity="0.5" stroke-width="1.8" stroke-linecap="round" stroke-linejoin="round"></path>
  </symbol>
  <symbol fill="none" xmlns="http://www.w3.org/2000/svg" viewBox="0 0 20 20" id="plus">
    <path d="M10 4.16669V15.8334" stroke="#85AA9F" stroke-width="1.5" stroke-linecap="round" stroke-linejoin="round"></path>
    <path d="M4.16663 10H15.8333" stroke="#85AA9F" stroke-width="1.5" stroke-linecap="round" stroke-linejoin="round"></path>
  </symbol>
  <symbol fill="none" xmlns="http://www.w3.org/2000/svg" viewBox="0 0 20 20" id="trash-grey">
    <path d="M7.5 2.5H12.5M8.33333 8.75V12.9167M11.6667 8.75V12.9167" stroke="#121417" stroke-opacity="0.5" stroke-width="1.8" stroke-linecap="round" stroke-linejoin="round"></path>
    <path d="M2.5 5H17.5M15.8333 5L15.2489 13.7661C15.1612 15.0813 15.1174 15.7389 14.8333 16.2375C14.5833 16.6765 14.206 17.0294 13.7514 17.2497C13.235 17.5 12.5759 17.5 11.2578 17.5H8.74221C7.42409 17.5 6.76503 17.5 6.24861 17.2497C5.79396 17.0294 5.41674 16.6765 5.16665 16.2375C4.88259 15.7389 4.83875 15.0813 4.75107 13.7661L4.16667 5" stroke="#121417" stroke-opacity="0.5" stroke-width="1.8" stroke-linecap="round" stroke-linejoin="round"></path>
  </symbol>
  <symbol fill="none" xmlns="http://www.w3.org/2000/svg" viewBox="0 0 32 32" id="ukraine">
    <g clip-path="url(#clip0_83_22570)">
      <path d="M16 32C24.8366 32 32 24.8366 32 16C32 7.16344 24.8366 0 16 0C7.16344 0 0 7.16344 0 16C0 24.8366 7.16344 32 16 32Z" fill="#FFDA44"></path>
      <path d="M0 16C0 7.1635 7.1635 0 16 0C24.8365 0 32 7.1635 32 16" fill="#338AF3"></path>
    </g>
    <defs>tra
      <clipPath id="clip0_83_22570">
        <rect width="32" height="32" fill="white"></rect>
      </clipPath>
    </defs>
  </symbol>
  <symbol fill="none" xmlns="http://www.w3.org/2000/svg" viewBox="0 0 32 32" id="united-kingdom">
    <g clip-path="url(#clip0_83_22571)">
      <path d="M16 32C24.8366 32 32 24.8366 32 16C32 7.16344 24.8366 0 16 0C7.16344 0 0 7.16344 0 16C0 24.8366 7.16344 32 16 32Z" fill="#F0F0F0"></path>
      <path d="M3.30758 6.25891C2.05077 7.8941 1.10308 9.77879 0.55127 11.8262H8.87489L3.30758 6.25891Z" fill="#0052B4"></path>
      <path d="M31.449 11.8262C30.8972 9.77885 29.9494 7.89416 28.6927 6.25897L23.1255 11.8262H31.449Z" fill="#0052B4"></path>
      <path d="M0.55127 20.174C1.10314 22.2214 2.05083 24.1061 3.30758 25.7412L8.87471 20.174H0.55127Z" fill="#0052B4"></path>
      <path d="M25.7413 3.30758C24.1061 2.05077 22.2215 1.10308 20.1741 0.551208V8.87477L25.7413 3.30758Z" fill="#0052B4"></path>
      <path d="M6.25903 28.6924C7.89422 29.9492 9.77891 30.8969 11.8263 31.4488V23.1253L6.25903 28.6924Z" fill="#0052B4"></path>
      <path d="M11.8262 0.551208C9.77885 1.10308 7.89416 2.05077 6.25903 3.30752L11.8262 8.87471V0.551208Z" fill="#0052B4"></path>
      <path d="M20.1741 31.4488C22.2214 30.8969 24.1061 29.9492 25.7413 28.6925L20.1741 23.1253V31.4488Z" fill="#0052B4"></path>
      <path d="M23.1255 20.174L28.6927 25.7413C29.9494 24.1061 30.8972 22.2214 31.449 20.174H23.1255Z" fill="#0052B4"></path>
      <path d="M31.8646 13.9131H18.0871H18.087V0.135438C17.4038 0.0465 16.7073 0 16 0C15.2926 0 14.5962 0.0465 13.9131 0.135438V13.9129V13.913H0.135438C0.0465 14.5962 0 15.2927 0 16C0 16.7074 0.0465 17.4038 0.135438 18.0869H13.9129H13.913V31.8646C14.5962 31.9535 15.2926 32 16 32C16.7073 32 17.4038 31.9536 18.0869 31.8646V18.0871V18.087H31.8646C31.9535 17.4038 32 16.7074 32 16C32 15.2927 31.9535 14.5962 31.8646 13.9131Z" fill="#D80027"></path>
      <path d="M20.1738 20.174L27.3136 27.3138C27.642 26.9855 27.9552 26.6423 28.2541 26.2866L22.1415 20.174H20.1738V20.174Z" fill="#D80027"></path>
      <path d="M11.8261 20.174H11.826L4.68628 27.3137C5.01453 27.6421 5.35772 27.9553 5.71347 28.2542L11.8261 22.1414V20.174Z" fill="#D80027"></path>
      <path d="M11.8261 11.8262V11.8261L4.68635 4.68628C4.35797 5.01453 4.04472 5.35772 3.74585 5.71347L9.85854 11.8262H11.8261V11.8262Z" fill="#D80027"></path>
      <path d="M20.1738 11.8262L27.3136 4.68629C26.9854 4.35791 26.6422 4.04466 26.2865 3.74585L20.1738 9.85854V11.8262Z" fill="#D80027"></path>
    </g>
    <defs>
      <clipPath id="clip0_83_22571">
        <rect width="32" height="32" fill="white"></rect>
      </clipPath>
    </defs>
  </symbol>
  <symbol fill="none" xmlns="http://www.w3.org/2000/svg" viewBox="0 0 16 16" id="error">
    <g clip-path="url(#clip0_7514_1210)">
      <path d="M7.99992 14.6667C4.31792 14.6667 1.33325 11.682 1.33325 8C1.33325 4.318 4.31792 1.33333 7.99992 1.33333C11.6819 1.33333 14.6666 4.318 14.6666 8C14.6666 11.682 11.6819 14.6667 7.99992 14.6667ZM7.33325 10V11.3333H8.66659V10H7.33325ZM7.33325 4.66667V8.66667H8.66659V4.66667H7.33325Z" fill="#D80027"></path>
    </g>
    <defs>
      <clipPath id="clip0_7514_1210">
        <rect width="16" height="16" fill="white"></rect>
      </clipPath>
    </defs>
  </symbol>

  <symbol fill="none" xmlns="http://www.w3.org/2000/svg" viewBox="0 0 525 437" id="right-bottom-svg">
    <path d="M99.5339 0.396193L771.087 195.868L432.684 698.699L0.823214 222.104L99.5339 0.396193Z" fill="url(#paint0_linear_23_6675)"></path>
    <defs>
      <linearGradient id="paint0_linear_23_6675" x1="508.416" y1="474.562" x2="280.414" y2="259.227" gradientUnits="userSpaceOnUse">
        <stop stop-color="#85AA9F" stop-opacity="0.51"></stop>
        <stop offset="1" stop-color="white" stop-opacity="0"></stop>
      </linearGradient>
    </defs>
  </symbol>
  <symbol fill="none" xmlns="http://www.w3.org/2000/svg" viewBox="0 0 20 20" id="user-icon">
    <path d="M9.9987 3.33325C10.8828 3.33325 11.7306 3.68444 12.3557 4.30956C12.9808 4.93468 13.332 5.78253 13.332 6.66659C13.332 7.55064 12.9808 8.39849 12.3557 9.02361C11.7306 9.64873 10.8828 9.99992 9.9987 9.99992C9.11465 9.99992 8.2668 9.64873 7.64168 9.02361C7.01656 8.39849 6.66537 7.55064 6.66537 6.66659C6.66537 5.78253 7.01656 4.93468 7.64168 4.30956C8.2668 3.68444 9.11465 3.33325 9.9987 3.33325ZM9.9987 16.6666C9.9987 16.6666 16.6654 16.6666 16.6654 14.9999C16.6654 12.9999 13.4154 10.8333 9.9987 10.8333C6.58203 10.8333 3.33203 12.9999 3.33203 14.9999C3.33203 16.6666 9.9987 16.6666 9.9987 16.6666Z" fill="#FCFCFC" fill-opacity="0.7"></path>
  </symbol>
  <symbol fill="none" xmlns="http://www.w3.org/2000/svg" viewBox="0 0 32 22" id="burger">
    <line x1="5.86914" y1="3.66663" x2="30.9996" y2="3.66663" stroke="#121417" stroke-width="2" stroke-linecap="round"></line>
    <line x1="5.86914" y1="17" x2="30.9996" y2="17" stroke="#121417" stroke-width="2" stroke-linecap="round"></line>
    <line x1="13.5215" y1="10.3334" x2="30.9997" y2="10.3334" stroke="#121417" stroke-width="2" stroke-linecap="round"></line>
  </symbol>
  <symbol fill="none" xmlns="http://www.w3.org/2000/svg" viewBox="0 0 20 20" id="user-icon-burger">
    <path d="M9.9987 3.33325C10.8828 3.33325 11.7306 3.68444 12.3557 4.30956C12.9808 4.93468 13.332 5.78253 13.332 6.66659C13.332 7.55064 12.9808 8.39849 12.3557 9.02361C11.7306 9.64873 10.8828 9.99992 9.9987 9.99992C9.11465 9.99992 8.2668 9.64873 7.64168 9.02361C7.01656 8.39849 6.66537 7.55064 6.66537 6.66659C6.66537 5.78253 7.01656 4.93468 7.64168 4.30956C8.2668 3.68444 9.11465 3.33325 9.9987 3.33325ZM9.9987 16.6666C9.9987 16.6666 16.6654 16.6666 16.6654 14.9999C16.6654 12.9999 13.4154 10.8333 9.9987 10.8333C6.58203 10.8333 3.33203 12.9999 3.33203 14.9999C3.33203 16.6666 9.9987 16.6666 9.9987 16.6666Z" fill="#85AA9F"></path>
  </symbol>
  <symbol fill="none" xmlns="http://www.w3.org/2000/svg" viewBox="0 0 32 32" id="x-close">
    <path d="M24 8L8 24" stroke="#FCFCFC" stroke-width="3" stroke-linecap="round" stroke-linejoin="round"></path>
    <path d="M8 8L24 24" stroke="#FCFCFC" stroke-width="3" stroke-linecap="round" stroke-linejoin="round"></path>
  </symbol>
  <symbol fill="none" xmlns="http://www.w3.org/2000/svg" viewBox="0 0 16 17" id="arrow-right">
    <path d="M0.933594 8.5H13.7336" stroke="#FCFCFC" stroke-width="1.5" stroke-linecap="round" stroke-linejoin="round"></path>
    <path d="M9.59961 3.83337L14.2663 8.50004L9.59961 13.1667" stroke="#FCFCFC" stroke-width="1.5" stroke-linecap="round" stroke-linejoin="round"></path>
  </symbol>
   <symbol fill="none" xmlns="http://www.w3.org/2000/svg" viewBox="0 0 20 20" id="search">
    <path d="M9.16667 15.8333C12.8486 15.8333 15.8333 12.8486 15.8333 9.16667C15.8333 5.48477 12.8486 2.5 9.16667 2.5C5.48477 2.5 2.5 5.48477 2.5 9.16667C2.5 12.8486 5.48477 15.8333 9.16667 15.8333Z" stroke="#121417" stroke-width="1.5" stroke-linecap="round" stroke-linejoin="round"></path>
    <path d="M17.5 17.5L13.875 13.875" stroke="#121417" stroke-width="1.5" stroke-linecap="round" stroke-linejoin="round"></path>
  </symbol>
  <symbol fill="none" xmlns="http://www.w3.org/2000/svg" viewBox="0 0 20 20" id="down-select">
    <mask id="path-1-inside-1_68_16929" fill="white">
      <path d="M10 13.752L3.75 7.50195L4.625 6.62695L10 12.002L15.375 6.62695L16.25 7.50195L10 13.752Z"></path>
    </mask>
    <path d="M10 13.752L3.75 7.50195L4.625 6.62695L10 12.002L15.375 6.62695L16.25 7.50195L10 13.752Z" fill="#121417"></path>
    <path d="M10 13.752L8.93934 14.8126L10 15.8733L11.0607 14.8126L10 13.752ZM3.75 7.50195L2.68934 6.44129L1.62868 7.50195L2.68934 8.56261L3.75 7.50195ZM4.625 6.62695L5.68566 5.56629L4.625 4.50563L3.56434 5.56629L4.625 6.62695ZM10 12.002L8.93934 13.0626L10 14.1233L11.0607 13.0626L10 12.002ZM15.375 6.62695L16.4357 5.56629L15.375 4.50563L14.3143 5.56629L15.375 6.62695ZM16.25 7.50195L17.3107 8.56261L18.3713 7.50195L17.3107 6.44129L16.25 7.50195ZM11.0607 12.6913L4.81066 6.44129L2.68934 8.56261L8.93934 14.8126L11.0607 12.6913ZM4.81066 8.56261L5.68566 7.68761L3.56434 5.56629L2.68934 6.44129L4.81066 8.56261ZM3.56434 7.68761L8.93934 13.0626L11.0607 10.9413L5.68566 5.56629L3.56434 7.68761ZM11.0607 13.0626L16.4357 7.68761L14.3143 5.56629L8.93934 10.9413L11.0607 13.0626ZM14.3143 7.68761L15.1893 8.56261L17.3107 6.44129L16.4357 5.56629L14.3143 7.68761ZM15.1893 6.44129L8.93934 12.6913L11.0607 14.8126L17.3107 8.56261L15.1893 6.44129Z" fill="#121417" mask="url(#path-1-inside-1_68_16929)"></path>
  </symbol>
    <symbol fill="none" xmlns="http://www.w3.org/2000/svg" viewBox="0 0 18 18" id="radio-off">
    <rect x="1" y="1" width="16" height="16" rx="8" stroke="#121417" stroke-opacity="0.2" stroke-width="2"></rect>
  </symbol>
  <symbol fill="none" xmlns="http://www.w3.org/2000/svg" viewBox="0 0 18 18" id="radio-on">
    <rect x="1" y="1" width="16" height="16" rx="8" stroke="#85AA9F" stroke-width="2"></rect>
    <rect x="4" y="4" width="10" height="10" rx="5" fill="#85AA9F"></rect>
  </symbol>
   <symbol fill="none" xmlns="http://www.w3.org/2000/svg" viewBox="0 0 20 20" id="arrow-right">
    <path d="M3.33203 10H16.6654M16.6654 10L13.332 6.66669M16.6654 10L13.332 13.3334" stroke="#85AA9F" stroke-width="1.5" stroke-linecap="round" stroke-linejoin="round"></path>
  </symbol>
   <symbol fill="none" xmlns="http://www.w3.org/2000/svg" viewBox="0 0 18 18" id="Radio-off-addword">
    <rect x="1" y="1" width="16" height="16" rx="8" stroke="#FCFCFC" stroke-width="2"></rect>
  </symbol>
  <symbol fill="none" xmlns="http://www.w3.org/2000/svg" viewBox="0 0 18 18" id="Radio-on-addword">
    <rect x="1" y="1" width="16" height="16" rx="8" stroke="#FCFCFC" stroke-width="2"></rect>
    <rect x="4" y="4" width="10" height="10" rx="5" fill="#FCFCFC"></rect>
  </symbol>
   <symbol fill="none" xmlns="http://www.w3.org/2000/svg" viewBox="0 0 12 4" id="3-dots">
    <path d="M2.1235 3.192C1.4195 3.192 0.8595 2.664 0.8595 2.008V1.928C0.8595 1.288 1.4195 0.76 2.1235 0.76C2.8115 0.76 3.4035 1.288 3.4035 1.928V2.008C3.4035 2.664 2.8115 3.192 2.1235 3.192ZM5.9985 3.192C5.2945 3.192 4.7345 2.664 4.7345 2.008V1.928C4.7345 1.288 5.2945 0.76 5.9985 0.76C6.6865 0.76 7.2785 1.288 7.2785 1.928V2.008C7.2785 2.664 6.6865 3.192 5.9985 3.192ZM9.8735 3.192C9.1695 3.192 8.6095 2.664 8.6095 2.008V1.928C8.6095 1.288 9.1695 0.76 9.8735 0.76C10.5615 0.76 11.1535 1.288 11.1535 1.928V2.008C11.1535 2.664 10.5615 3.192 9.8735 3.192Z" fill="#121417" fill-opacity="0.5"></path>
  </symbol>
   <symbol fill="none" xmlns="http://www.w3.org/2000/svg" viewBox="0 0 16 17" id="pensil-color">
    <path d="M11.334 2.49998C11.5091 2.32488 11.7169 2.18599 11.9457 2.09123C12.1745 1.99647 12.4197 1.94769 12.6673 1.94769C12.9149 1.94769 13.1601 1.99647 13.3889 2.09123C13.6177 2.18599 13.8256 2.32488 14.0007 2.49998C14.1757 2.67507 14.3146 2.88294 14.4094 3.11172C14.5042 3.34049 14.5529 3.58569 14.5529 3.83331C14.5529 4.08093 14.5042 4.32613 14.4094 4.55491C14.3146 4.78368 14.1757 4.99155 14.0007 5.16664L5.00065 14.1666L1.33398 15.1666L2.33398 11.5L11.334 2.49998Z" stroke="#85AA9F" stroke-width="1.3" stroke-linecap="round" stroke-linejoin="round"></path>
  </symbol>
  <symbol fill="none" xmlns="http://www.w3.org/2000/svg" viewBox="0 0 16 17" id="trash-color">
    <path d="M2 4.5H3.33333H14" stroke="#85AA9F" stroke-opacity="0.94" stroke-width="1.3" stroke-linecap="round" stroke-linejoin="round"></path>
    <path d="M12.6673 4.49998V13.8333C12.6673 14.1869 12.5268 14.5261 12.2768 14.7761C12.0267 15.0262 11.6876 15.1666 11.334 15.1666H4.66732C4.3137 15.1666 3.97456 15.0262 3.72451 14.7761C3.47446 14.5261 3.33398 14.1869 3.33398 13.8333V4.49998M5.33398 4.49998V3.16665C5.33398 2.81302 5.47446 2.47389 5.72451 2.22384C5.97456 1.97379 6.3137 1.83331 6.66732 1.83331H9.33398C9.68761 1.83331 10.0267 1.97379 10.2768 2.22384C10.5268 2.47389 10.6673 2.81302 10.6673 3.16665V4.49998" stroke="#85AA9F" stroke-opacity="0.94" stroke-width="1.3" stroke-linecap="round" stroke-linejoin="round"></path>
    <path d="M6.66602 7.83331V11.8333" stroke="#85AA9F" stroke-opacity="0.94" stroke-width="1.3" stroke-linecap="round" stroke-linejoin="round"></path>
    <path d="M9.33398 7.83331V11.8333" stroke="#85AA9F" stroke-opacity="0.94" stroke-width="1.3" stroke-linecap="round" stroke-linejoin="round"></path>
  </symbol>
</svg>

